PathFileType	4	(X/Y/Z)	C:\Users\Basilio\Documents\Thesis Gigler\squatting_fais\c3dfiles\047\SLS_pre_back4\markers_experimental.trc
DataRate	CameraRate	NumFrames	NumMarkers	Units	OrigDataRate	OrigDataStartFrame	OrigNumFrames
200.000000	200.000000	4	61	mm	200.000000	1108	1267
Frame#	Time	FHD			LBHD			RBHD			C7			T10			CLAV			LSHO			LUUPA			LMUPA			LDUPA			LLEP			LMEP			LRAD			LUL			LRFIN			RSHO			RUPA1			RMUPA			RDUPA			RLEP			RMEP			RUL			RUFIN			LASI			RASI			USACR			LSACR			RSACR			LTHI1			LTHI2			LTHI3			LTHI4			LLFC			LMFC			LTIB1			LTIB2			LTIB3			LTIB4			LLMAL			LMMAL			LMT1			LMT2			LMT5			RTHI			RTHI2			RTHI3			RTHI4			RLFC			RMFC			RTIB1			RTIB2			RTIB3			RTIB4			RLMAL			RMMAL			RHEE			RMT1			RMT2			RMT5			RRAD			*60			
		X1	Y1	Z1	X2	Y2	Z2	X3	Y3	Z3	X4	Y4	Z4	X5	Y5	Z5	X6	Y6	Z6	X7	Y7	Z7	X8	Y8	Z8	X9	Y9	Z9	X10	Y10	Z10	X11	Y11	Z11	X12	Y12	Z12	X13	Y13	Z13	X14	Y14	Z14	X15	Y15	Z15	X16	Y16	Z16	X17	Y17	Z17	X18	Y18	Z18	X19	Y19	Z19	X20	Y20	Z20	X21	Y21	Z21	X22	Y22	Z22	X23	Y23	Z23	X24	Y24	Z24	X25	Y25	Z25	X26	Y26	Z26	X27	Y27	Z27	X28	Y28	Z28	X29	Y29	Z29	X30	Y30	Z30	X31	Y31	Z31	X32	Y32	Z32	X33	Y33	Z33	X34	Y34	Z34	X35	Y35	Z35	X36	Y36	Z36	X37	Y37	Z37	X38	Y38	Z38	X39	Y39	Z39	X40	Y40	Z40	X41	Y41	Z41	X42	Y42	Z42	X43	Y43	Z43	X44	Y44	Z44	X45	Y45	Z45	X46	Y46	Z46	X47	Y47	Z47	X48	Y48	Z48	X49	Y49	Z49	X50	Y50	Z50	X51	Y51	Z51	X52	Y52	Z52	X53	Y53	Z53	X54	Y54	Z54	X55	Y55	Z55	X56	Y56	Z56	X57	Y57	Z57	X58	Y58	Z58	X59	Y59	Z59	X60	Y60	Z60	X61	Y61	Z61	

1109	5.54	-174.4868774414063	1752.834350585938	-1094.810913085938	-348.0611877441407	1696.685546875	-1117.84326171875	-322.6566162109376	1699.496948242188	-971.209167480469	-354.1754760742188	1520.747924804688	-1050.97412109375	-361.5519409179688	1210.369750976563	-1033.45166015625	-205.6555633544922	1465.5322265625	-1085.345092773438	-289.0631408691407	1480.26904296875	-1235.87841796875	-229.8923950195313	1328.350708007813	-1336.937377929688	-187.3818969726563	1353.506469726563	-1337.4697265625	-168.3586883544922	1298.115478515625	-1352.801147460938	-96.38566589355472	1283.84130859375	-1360.777221679688	-115.5602264404297	1235.387451171875	-1283.296752929688	47.34861373901368	1414.53955078125	-1191.61474609375	93.31958007812501	1352.796875	-1189.505615234375	134.7030639648438	1435.236572265625	-1191.768676757813	-231.9043731689454	1491.847534179688	-920.3494262695315	-128.8178100585938	1344.47802734375	-834.676452636719	-90.87145233154298	1368.014404296875	-854.2197265625002	-66.54171752929689	1314.048950195313	-842.4816894531252	5.253888607025147	1301.929565429688	-864.6420898437502	-26.83410072326661	1238.450439453125	-919.8879394531252	145.6987457275391	1361.06005859375	-1079.8759765625	116.9036560058594	1447.344360351563	-1101.624267578125	-198.5562133789063	983.5449218750002	-1133.974853515625	-177.3597106933594	1005.451721191406	-904.8353271484377	-368.7297973632813	1078.390869140625	-1015.244140625	-376.2841186523438	1044.4677734375	-1039.8818359375	-370.7350158691407	1049.938354492188	-982.0916748046877	-295.0461120605469	829.9090576171877	-1186.372680664063	-264.3351135253907	751.1293945312501	-1184.651000976563	-215.1174316406251	752.8790283203126	-1175.921508789063	-296.0292053222657	699.5926513671876	-1172.871337890625	-329.9076538085938	530.1864013671876	-1127.524169921875	-291.7723388671876	523.5217895507814	-1009.303955078125	-294.9507141113282	347.7668151855469	-1031.44091796875	-310.6207885742188	299.5309143066407	-1102.892944335938	-290.2211914062501	298.3862915039063	-1059.845336914063	-300.9270324707032	222.9051971435547	-1025.852294921875	-353.8564147949219	123.5738906860352	-1061.538940429688	-328.0114746093751	141.7104949951172	-978.2329101562502	-209.9342803955079	64.63846588134767	-994.3415527343752	-208.4372100830079	60.40510559082033	-1039.305297851563	-259.6513366699219	47.0026969909668	-1082.252685546875	-235.2392730712891	834.3513183593752	-788.2258300781252	-184.6714782714844	790.9229125976565	-778.993103027344	-155.0599670410157	796.7610473632815	-790.1545410156252	-193.1329193115235	708.1005859375001	-766.6195678710939	-166.2722625732422	576.8605346679689	-770.8462524414065	-148.7801666259766	541.0682983398439	-895.4329223632815	-244.011703491211	479.7479553222657	-776.6156005859377	-347.2713012695313	511.4954833984376	-756.1505737304689	-327.3973693847657	468.6560363769532	-757.7357788085939	-365.1430969238282	432.6141052246095	-788.6959228515627	-530.6398315429689	436.4874877929689	-774.6231689453127	-496.4371948242189	395.7983703613282	-851.9084472656252	-555.8270874023439	474.8944091796876	-842.6694946289065	-556.6551513671876	267.4115600585938	-823.5721435546877	-561.7445678710939	269.4126586914063	-778.2141113281252	-603.8041381835939	322.4669799804688	-740.8361816406251	nan	nan	nan	nan	nan	nan	
1110	5.545	-174.7950744628907	1752.491821289063	-1095.034057617188	-348.1934814453126	1696.435180664063	-1118.300170898438	-322.9463195800782	1699.663330078125	-971.588562011719	-354.4114379882813	1520.615600585938	-1051.177978515625	-361.4906005859376	1210.426879882813	-1033.36669921875	-205.7406463623047	1465.571533203125	-1085.662353515625	-289.2247314453126	1480.096923828125	-1236.1552734375	-230.1782684326172	1328.087158203125	-1337.10498046875	-187.7703552246094	1353.290649414063	-1337.701293945313	-168.6193542480469	1297.9443359375	-1352.924438476563	-96.78324127197268	1283.72119140625	-1360.984497070313	-115.3213043212891	1235.328002929688	-1283.420532226563	47.21762084960938	1414.536254882813	-1192.128295898438	93.33603668212892	1352.899658203125	-1190.049072265625	134.4100036621094	1435.297241210938	-1192.350219726563	-231.9236450195313	1491.933349609375	-920.6127929687502	-128.7324981689453	1345.044189453125	-834.1407470703127	-90.73453521728517	1367.996704101563	-854.448669433594	-66.47243499755861	1314.312133789063	-842.676452636719	5.299577713012696	1302.114868164063	-864.9525146484377	-26.65128326416016	1238.608276367188	-920.2529907226565	145.6342468261719	1361.2109375	-1080.339599609375	116.9920730590821	1447.40185546875	-1102.026123046875	-198.4372558593751	983.6391601562502	-1133.931274414063	-177.2785186767578	1005.528259277344	-904.7600097656252	-368.5978698730469	1078.446899414063	-1015.174621582031	-376.2214965820313	1044.505981445313	-1039.78857421875	-370.5492858886719	1049.992309570313	-982.0310668945315	-294.7045288085938	830.2749633789065	-1186.39697265625	-264.3350830078126	751.2318725585939	-1184.679077148438	-215.4190368652344	752.9094238281251	-1175.841064453125	-296.1029968261719	699.7526245117189	-1172.822387695313	-329.9817810058594	530.3037719726564	-1127.579345703125	-291.5398864746094	523.6279296875001	-1009.50048828125	-294.9135131835938	347.8585510253907	-1031.583862304688	-310.7209777832032	299.6904602050782	-1103.10693359375	-290.4970092773438	299.1442871093751	-1060.79833984375	-300.9424133300782	223.0108032226563	-1026.0390625	-353.8083801269532	123.595458984375	-1061.7197265625	-327.9356994628907	141.8180389404297	-978.3665161132815	-209.9633178710938	64.68398284912111	-994.4481201171877	-209.8730773925782	59.95843887329103	-1039.480590820313	-259.1535949707032	47.14033508300782	-1082.875610351563	-234.9969940185547	834.4342041015627	-788.1765136718752	-184.6224212646485	791.0174560546877	-778.7305297851565	-154.6073913574219	796.7161254882815	-790.7598876953127	-193.0083007812501	708.1290893554689	-766.5842285156251	-166.2250366210938	576.9044189453126	-770.7169189453127	-148.7870178222657	541.0168457031251	-895.5102539062502	-244.0194549560547	479.7601013183595	-776.2754516601565	-347.4289245605469	511.7339477539064	-755.8009643554689	-327.4530334472657	468.7308349609376	-757.3294067382814	-365.1688232421876	432.7068481445314	-788.2169189453127	-530.5388793945314	436.6824951171876	-773.9854125976565	-496.4393615722657	395.9537963867189	-851.4492797851565	-556.1267700195314	474.898162841797	-841.825378417969	-556.8339233398439	267.4377746582032	-822.6766357421877	-561.8601684570314	269.4078674316407	-777.1961059570315	-603.8725585937501	322.7398071289063	-739.9895019531251	nan	nan	nan	nan	nan	nan	
1111	5.55	-175.2831573486328	1752.479370117188	-1095.465942382813	-348.2803955078126	1696.420654296875	-1118.725341796875	-323.0636901855469	1699.78466796875	-971.995300292969	-354.5531616210938	1520.593872070313	-1051.385375976563	-361.5082397460938	1210.572143554688	-1033.286743164063	-205.8333587646485	1465.599609375	-1085.860229492188	-289.6701354980469	1479.968139648438	-1236.19970703125	-230.4909667968751	1327.82421875	-1337.152709960938	-188.1900482177735	1352.990600585938	-1337.969482421875	-168.94287109375	1297.803466796875	-1353.089965820313	-97.08525848388675	1283.6826171875	-1361.28369140625	-115.3115234375	1235.119995117188	-1283.56640625	46.94732284545899	1414.642822265625	-1192.782470703125	92.99575805664064	1353.074584960938	-1190.6142578125	134.277084350586	1435.377075195313	-1192.991821289063	-231.9790496826172	1492.12158203125	-920.9956054687502	-128.524887084961	1345.291259765625	-834.3742675781252	-90.75753784179689	1368.20068359375	-854.6519775390627	-66.1752166748047	1314.603881835938	-843.074645996094	5.485576152801515	1302.394653320313	-865.434509277344	-26.44879150390626	1238.954345703125	-920.4826660156252	145.6224060058594	1361.383666992188	-1080.874633789063	116.6708908081055	1447.450439453125	-1102.731323242188	-198.3798217773438	983.712341308594	-1133.979736328125	-177.1085815429688	1005.672241210938	-904.8463134765627	-368.5184020996094	1078.524169921875	-1015.064270019531	-376.0601501464844	1044.525024414063	-1039.780395507813	-370.4413146972657	1050.01953125	-981.946472167969	-294.7233276367188	830.349792480469	-1186.338256835938	-264.3740539550782	751.3609619140626	-1184.689331054688	-215.5103607177735	753.2984619140626	-1176.27587890625	-296.1231079101563	699.9088745117189	-1172.792724609375	-330.1052856445313	530.4084472656251	-1127.607299804688	-291.3252868652344	523.7071533203126	-1009.611145019531	-294.6730651855469	348.0950927734376	-1031.881103515625	-310.8005981445313	299.8218383789063	-1103.200805664063	-290.3976135253907	299.3333740234376	-1060.9169921875	-300.9428100585938	223.0322418212891	-1026.125366210938	-353.8245849609376	123.6109619140625	-1061.799926757813	-327.8493347167969	141.9259338378907	-978.4863281250002	-209.8741455078126	64.71417236328126	-994.6491699218752	-208.3516540527344	60.37272262573244	-1039.434936523438	-259.0440673828126	47.13494491577149	-1082.91748046875	-234.7294921875001	834.5567626953127	-788.265075683594	-184.5730133056641	790.950378417969	-778.431335449219	-154.525131225586	796.6731567382815	-790.6087646484377	-193.0035247802735	708.1123657226564	-766.3616333007814	-166.1637725830078	576.9179687500001	-770.781921386719	-149.0904541015625	540.9232177734376	-895.4375000000002	-244.1735992431641	479.8289489746095	-775.857849121094	-347.3958740234376	511.6985473632814	-755.4556274414064	-327.4622802734376	468.9479064941407	-757.1831665039064	-365.2315673828126	432.803192138672	-787.8045654296877	-530.4636840820314	436.8912963867189	-773.3571777343752	-496.8303833007814	396.148895263672	-850.3774414062502	-556.1882324218751	474.9800415039064	-841.3177490234377	-557.0796508789064	268.0721740722657	-821.7773437500002	-561.9202270507814	269.5032653808594	-776.967956542969	-603.8336791992189	322.9919738769532	-739.0259399414064	nan	nan	nan	nan	nan	nan	
1112	5.555	-175.3755950927735	1752.551391601563	-1096.215209960938	-348.5146789550782	1696.383056640625	-1119.139892578125	-323.3022766113282	1699.844604492188	-972.3743286132815	-354.6570129394532	1520.586181640625	-1051.579223632813	-361.5668945312501	1210.626708984375	-1033.240112304688	-205.9076232910157	1465.64208984375	-1086.093139648438	-289.8723449707032	1479.8759765625	-1236.497436523438	-230.8666381835938	1327.716430664063	-1337.19189453125	-188.5848541259766	1352.835327148438	-1338.223022460938	-169.3132629394532	1297.670166015625	-1353.259155273438	-97.54283142089847	1283.584838867188	-1361.55029296875	-106.0555419921875	1232.5234375	-1283.477294921875	46.78108215332032	1414.721069335938	-1193.3505859375	91.02498626708986	1353.08935546875	-1189.652099609375	133.9872436523438	1435.405517578125	-1193.557250976563	-232.0860748291016	1492.204467773438	-921.165954589844	-128.3240661621094	1345.513061523438	-834.5842285156252	-90.4654006958008	1368.5693359375	-855.2530517578127	-66.09983825683595	1314.84423828125	-843.2180175781252	5.710131168365479	1302.803466796875	-865.8896484375002	-26.42141914367676	1239.002197265625	-920.7415771484377	145.5551452636719	1361.581176757813	-1081.434448242188	116.6444702148438	1447.674926757813	-1103.4091796875	-198.3155822753907	983.7752075195315	-1133.925415039063	-176.9020080566407	1005.892578125	-904.798278808594	-368.3684692382813	1078.581176757813	-1015.033935546875	-375.9533081054688	1044.6494140625	-1039.66162109375	-370.3305969238282	1050.089111328125	-981.8891601562502	-294.7657165527344	830.4932861328127	-1186.280883789063	-264.4424133300782	751.4927368164064	-1184.651000976563	-215.3496856689454	753.4246826171876	-1176.508911132813	-296.1882019042969	700.0560302734376	-1172.753173828125	-330.2229919433594	530.6000976562501	-1127.635131835938	-291.3249816894532	523.7012329101564	-1009.612243652344	-294.7275695800782	348.1440734863282	-1031.991088867188	-310.9974060058594	299.8986816406251	-1103.312866210938	-290.4242553710938	299.4163208007813	-1061.038696289063	-300.9553833007813	223.0677337646485	-1026.240966796875	-353.8473205566407	123.604248046875	-1061.91650390625	-327.8125305175782	141.9644927978516	-978.5502929687502	-209.8721160888672	64.73338317871095	-994.7117309570315	-208.294662475586	60.38378524780275	-1039.4755859375	-259.1394653320313	47.08087158203126	-1083.008911132813	-234.5105438232422	834.6489868164065	-788.261901855469	-184.4724273681641	791.0887451171877	-778.4272460937502	-154.5913848876953	796.6750488281252	-790.3321533203127	-192.9369201660157	708.1454467773439	-766.3982543945314	-166.1870574951172	576.9273681640626	-770.5623168945315	-149.3030090332032	541.2839355468751	-895.3135375976565	-244.2186126708985	480.0196228027345	-775.758483886719	-347.3701477050782	511.8311157226564	-755.1764526367189	-327.6073913574219	469.071258544922	-756.7347412109376	-365.2005615234376	432.892303466797	-787.4471435546877	-530.6087646484376	437.130096435547	-772.7178955078127	-496.9387207031251	396.2080078125001	-849.7713012695315	-556.2409667968751	475.1296997070314	-840.781433105469	-557.2305908203126	268.2202758789063	-821.025085449219	-562.0272827148439	269.8189086914063	-776.2226562500002	-603.7166137695314	323.3155212402344	-738.1926269531251	nan	nan	nan	nan	nan	nan	
